<svg xmlns="http://www.w3.org/2000/svg" viewBox="0 0 221.08887 38.36426">
  <title>logo-word</title>
  <g id="Layer_2" data-name="Layer 2">
    <g id="Layer_1-2" data-name="Layer 1">
      <g>
        <path d="M29.18848,36.46582q0,1.24-.76465,1.23926H22.35938q-.76539,0-3.98145-5.61621a75.4525,75.4525,0,0,1-3.6123-6.85547q-.89649-2.03028-1.02833-2.26758a2.45227,2.45227,0,0,0-1.8457-1.39746q-.31641-.02564-1.7666-.02637-3.32226,0-3.32227.81739,0,2.4265.17139,7.251.17139,4.8252.17139,7.22461,0,.87012-.65918.87012-.501,0-1.50293-.0791-1.00269-.07911-1.50293-.0791-.47461,0-1.41065.0791t-1.41064.0791Q0,37.70508,0,37.09863q0-2.90038.27686-8.71435t.27685-8.71436q0-3.05859-.27685-9.189T0,1.292Q0,.71265.65918.71191q.47461,0,1.4502.07911.97485.0791,1.47656.0791.4746,0,1.42383-.0791T6.43359.71191q.60645,0,.60645.47461,0,2.24121-.145,6.75T6.75,14.71289a3.72093,3.72093,0,0,0,.13184,1.292q.21093.47462,1.081.47461,5.11524,0,7.48828-1.89844,2.03028-1.68676,3.84961-6.19628,1.31837-3.5332,2.63672-7.06641a1.08973,1.08973,0,0,1,.81738-.60645A19.31388,19.31388,0,0,1,25.5498.60645q2.9004,0,2.9004.81738a32.15662,32.15662,0,0,1-1.2129,4.27148A30.82353,30.82353,0,0,1,23.5459,13.5a25.76221,25.76221,0,0,1-3.98145,4.61426,1.48286,1.48286,0,0,0-.63281,1.00195,28.40925,28.40925,0,0,0,2.13574,4.71973A53.89362,53.89362,0,0,0,24.416,29.71582q1.66113,2.031,4.64062,6.249A1.01793,1.01793,0,0,1,29.18848,36.46582Z" style="fill: #7f7fd5"/>
        <path d="M57.77051,13.84277a3.07458,3.07458,0,0,1-.0791.47461,63.33751,63.33751,0,0,0-1.02832,10.415q0,.26367.65918,11.83887l.02636.36914q.02637.76537-.69922.76465a20.53687,20.53687,0,0,0-2.188.17138,20.65187,20.65187,0,0,1-2.1753.17139q-.501,0-.76465-1.8457-.26367-1.845-.501-1.8457a6.84109,6.84109,0,0,0-1.42383,1.02832,15.54487,15.54487,0,0,1-2.90039,1.9248,9.159,9.159,0,0,1-4.166,1.05469,10.931,10.931,0,0,1-8.62207-4.08692,13.60151,13.60151,0,0,1-3.32226-9.09668,14.15178,14.15178,0,0,1,3.34863-9.67675,11.70449,11.70449,0,0,1,9.22852-3.98145,10.0098,10.0098,0,0,1,7.04,2.79492q.44823.52808,1.39746,1.5293a.22789.22789,0,0,0,.1582.0791q.15821,0,.44824-1.66113t.73828-1.66113a16.37848,16.37848,0,0,1,2.66309.3955Q57.7705,13.47363,57.77051,13.84277ZM51.04688,24.86426a8.43537,8.43537,0,0,0-1.92481-5.56348,6.39335,6.39335,0,0,0-5.19434-2.50488,6.64427,6.64427,0,0,0-5.27343,2.47851A8.32323,8.32323,0,0,0,36.624,24.86426a8.18872,8.18872,0,0,0,2.03028,5.53711,6.67126,6.67126,0,0,0,5.27343,2.45215,6.46153,6.46153,0,0,0,5.168-2.50489A8.31633,8.31633,0,0,0,51.04688,24.86426Z" style="fill: #7f7fd5"/>
        <path d="M85.29785,37.17773q0,.58008-.52734.58008-.87012,0-2.59668-.02636-1.72853-.02637-2.59766-.02637-.4746,0-.47461-.76465,0-1.29126.0791-3.92871.07911-2.636.07911-3.95508,0-1.054-.02637-3.15088-.02637-2.09619-.02637-3.15088a7.68921,7.68921,0,0,0-.87012-4.24511q-1.05468-1.47657-3.90234-1.47657a7.76737,7.76737,0,0,0-3.665,1.47657Q68.291,20.06616,68.291,21.27832V37.09863q0,.65919-.501.65918-.84375,0-2.53125-.02636t-2.53125-.02637q-.55371,0-.55371-.60645,0-2.08227.0664-6.249.06446-4.166.06543-6.27539a42.67513,42.67513,0,0,0-1.18652-10.36231,1.25475,1.25475,0,0,1-.0791-.34277c0-.17529.11426-.29883.34277-.36914q.18458-.02563,3.01953-.48779,2.833-.46069,2.96582-.46143c.10547,0,.17579.14111.21094.42188a16.92788,16.92788,0,0,0,.60645,3.29589q1.37109-1.08105,3.6123-2.68945a10.2974,10.2974,0,0,1,5.35254-1.6875q4.957,0,6.77637,2.874,1.34472,2.1101,1.34472,6.8291,0,.81738-.03906,2.50488-.041,1.6875-.04,2.53125,0,1.7666.05274,5.27344T85.29785,37.17773Z" style="fill: #7f7fd5"/>
        <path d="M116.46387,24.96973a13.73687,13.73687,0,0,1-3.24317,9.09668,10.78191,10.78191,0,0,1-8.5957,4.11328,10.63083,10.63083,0,0,1-6.03809-1.74024q-1.05468-.89574-2.10937-1.7666-.29.07911-.38281,1.582-.0923,1.50294-.43457,1.50293H90.09668q-.31641,0-.31641-.34277,0,.02637.05274-.47461.42188-4.218.42187-16.13672,0-4.87792-.42187-14.31738-.26367-6.01171-.26367-5.27344a.69056.69056,0,0,1,.68554-.76465Q91.20411.4226,93.07617.34277,93.44532.31714,94.5791.1582A9.7615,9.7615,0,0,1,96.1084,0q.42188,0,.42187.60645,0,.89647-.13183,2.74218T96.2666,6.11719q0,1.37109-.11914,4.12646-.11718,2.75538-.11816,4.12647,0,1.00268.36914,1.002c.123,0,.25488-.09619.39551-.29a9.35259,9.35259,0,0,1,7.67285-3.6123,10.90475,10.90475,0,0,1,8.833,4.08691A14.34088,14.34088,0,0,1,116.46387,24.96973Zm-5.959-.23731a8.4533,8.4533,0,0,0-1.97754-5.53711A6.4892,6.4892,0,0,0,103.333,16.6377a6.61539,6.61539,0,0,0-5.27344,2.50488,8.32562,8.32562,0,0,0-2.03027,5.58984A8.397,8.397,0,0,0,98.05957,30.375a6.6964,6.6964,0,0,0,5.32617,2.47852,6.43953,6.43953,0,0,0,5.19434-2.55762A8.56566,8.56566,0,0,0,110.50488,24.73242Z" style="fill: #86a8e7"/>
        <path d="M144.12305,24.86426a13.3624,13.3624,0,0,1-3.61231,9.41308,12.44983,12.44983,0,0,1-18.32519.02637,13.27015,13.27015,0,0,1-3.61231-9.38672,13.271,13.271,0,0,1,3.61231-9.38672,12.56032,12.56032,0,0,1,18.29883,0A13.09445,13.09445,0,0,1,144.12305,24.86426Zm-5.56348.05273a8.05852,8.05852,0,0,0-1.97754-5.48437,6.578,6.578,0,0,0-5.2207-2.39942,6.6847,6.6847,0,0,0-5.24707,2.373,8.15684,8.15684,0,0,0-1.97754,5.51074,8.11936,8.11936,0,0,0,2.00391,5.48438,6.78359,6.78359,0,0,0,10.4414,0A8.18392,8.18392,0,0,0,138.55957,24.917Z" style="fill: #7f7fd5"/>
        <path d="M173.46973,13.84277a3.07458,3.07458,0,0,1-.0791.47461,63.33765,63.33765,0,0,0-1.02833,10.415q0,.26367.65918,11.83887l.02637.36914q.02637.76537-.69922.76465a20.51172,20.51172,0,0,0-2.1875.17138,20.6774,20.6774,0,0,1-2.17578.17139q-.501,0-.76465-1.8457-.26367-1.845-.501-1.8457a6.84109,6.84109,0,0,0-1.42383,1.02832,15.52894,15.52894,0,0,1-2.90039,1.9248,9.15745,9.15745,0,0,1-4.166,1.05469,10.93239,10.93239,0,0,1-8.62207-4.08692,13.60151,13.60151,0,0,1-3.32226-9.09668,14.15178,14.15178,0,0,1,3.34863-9.67675,11.70518,11.70518,0,0,1,9.22851-3.98145,10.00977,10.00977,0,0,1,7.04,2.79492q.44824.52808,1.39746,1.5293a.22793.22793,0,0,0,.15821.0791q.15821,0,.44824-1.66113t.73828-1.66113a16.37116,16.37116,0,0,1,2.66309.3955Q173.46972,13.47363,173.46973,13.84277Zm-6.72364,11.02149a8.43284,8.43284,0,0,0-1.9248-5.56348A6.3927,6.3927,0,0,0,159.627,16.7959a6.64427,6.64427,0,0,0-5.27343,2.47851,8.32567,8.32567,0,0,0-2.03028,5.58985,8.19112,8.19112,0,0,0,2.03028,5.53711,6.67126,6.67126,0,0,0,5.27343,2.45215,6.46154,6.46154,0,0,0,5.168-2.50489A8.31632,8.31632,0,0,0,166.74609,24.86426Z" style="fill: #7f7fd5"/>
        <path d="M192.84961,12.94629a32.20975,32.20975,0,0,1-.39551,5.27344q-.0791.60717-.52734.60644-.55371,0-1.67481-.11865-1.1206-.11865-1.70019-.11865-3.32228,0-4.24512,1.87207a12.79084,12.79084,0,0,0-.55371,4.71972v2.90039q0,1.4773.11816,4.48243.12012,3.00585.11914,4.48242,0,.71191-.60644.71191-.81738,0-2.47852-.02636t-2.47851-.02637q-.60645,0-.60645-.65918,0-2.13574.06641-6.4336.06445-4.29711.06543-6.46a36.7488,36.7488,0,0,0-1.21289-10.46777,1.44216,1.44216,0,0,1-.05274-.31641.46165.46165,0,0,1,.34278-.44824q.97558-.10473,2.74218-.3164,2.84766-.52735,2.63672-.52735.42188,0,.55371,1.55567.13184,1.55638.47461,1.55566a.252.252,0,0,0,.13184-.05273q1.081-.68556,2.16211-1.3711a9.77146,9.77146,0,0,1,2.42578-1.05469,9.1551,9.1551,0,0,1,2.63672-.3164Q192.84961,12.39258,192.84961,12.94629Z" style="fill: #7f7fd5"/>
        <path d="M221.08887.92285q0,3.40137-.30371,10.19092-.30322,6.78956-.30274,10.16455,0,10.41577.44824,15.76758l.02637.34277q.02637.26367-.71191.34278a9.41539,9.41539,0,0,1-1.42383,0q-1.10742-.07911-1.02832-.07911-.3955,0-1.16016.07911t-1.16015.0791q-.36915,0-.43555-1.83252a5.31,5.31,0,0,0-.19727-1.85889,1.53732,1.53732,0,0,0-.3955.34277,11.12708,11.12708,0,0,1-17.05957-.1582,13.78926,13.78926,0,0,1-3.24317-9.22851,14.01977,14.01977,0,0,1,3.26953-9.43946,11.2022,11.2022,0,0,1,8.93848-4.00781,9.1039,9.1039,0,0,1,5.80078,1.95117q1.13379.97558,2.24121,1.97754a.3475.3475,0,0,0,.21094-.36914v-8.543q0-.87012-.0791-2.63672-.07911-1.76586-.0791-2.66308,0-.63282.42187-.63282.97559,0,2.90039-.17138t2.874-.17139Q221.08886.36914,221.08887.92285ZM214.49707,24.917a8.5601,8.5601,0,0,0-1.95117-5.56347,6.41594,6.41594,0,0,0-5.168-2.55762,6.66765,6.66765,0,0,0-5.35254,2.53125,8.5373,8.5373,0,0,0-2.00391,5.69531,8.03556,8.03556,0,0,0,2.083,5.51074,6.69247,6.69247,0,0,0,5.27344,2.47852,6.46485,6.46485,0,0,0,5.2207-2.50488A8.61139,8.61139,0,0,0,214.49707,24.917Z" style="fill: #7f7fd5"/>
      </g>
    </g>
  </g>
</svg>
