<svg xmlns="http://www.w3.org/2000/svg" xmlns:xlink="http://www.w3.org/1999/xlink" viewBox="0 0 270.9375 289">
  <defs>
    <linearGradient id="linear-gradient" x1="2.89823" y1="11.92948" x2="268.03927" y2="277.07052" gradientUnits="userSpaceOnUse">
      <stop offset="0" stop-color="#7f7fd5"/>
      <stop offset="0.5" stop-color="#86a8e7"/>
      <stop offset="1" stop-color="#91eae4"/>
    </linearGradient>
  </defs>
  <title>logo-header</title>
  <g id="Layer_2" data-name="Layer 2">
    <g id="Layer_1-2" data-name="Layer 1">
      <path d="M25.3125,0A25.3125,25.3125,0,0,0,0,25.3125v238.375A25.3125,25.3125,0,0,0,25.3125,289H245.625a25.3125,25.3125,0,0,0,25.3125-25.3125V25.3125A25.3125,25.3125,0,0,0,245.625,0ZM108.375,43.375v75.8125a7.25,7.25,0,0,0,7.25,7.25h39.6875a7.25,7.25,0,0,0,7.25-7.25V43.375a7.25,7.25,0,0,0-7.25-7.25H115.625A7.25,7.25,0,0,0,108.375,43.375ZM227.5625,198.6875H187.875a7.25,7.25,0,0,1-7.25-7.25V43.375a7.25,7.25,0,0,1,7.25-7.25h39.6875a7.25,7.25,0,0,1,7.25,7.25V191.4375A7.25,7.25,0,0,1,227.5625,198.6875ZM36.125,43.375v202.25a7.25,7.25,0,0,0,7.25,7.25H83.0625a7.25,7.25,0,0,0,7.25-7.25V43.375a7.25,7.25,0,0,0-7.25-7.25H43.375A7.25,7.25,0,0,0,36.125,43.375Z" style="fill-rule: evenodd;fill: url(#linear-gradient)"/>
    </g>
  </g>
</svg>
