<svg xmlns="http://www.w3.org/2000/svg" xmlns:xlink="http://www.w3.org/1999/xlink" viewBox="0 0 365.02002 115.6">
  <defs>
    <linearGradient id="linear-gradient" x1="1.15929" y1="4.77179" x2="107.21571" y2="110.82821" gradientUnits="userSpaceOnUse">
      <stop offset="0" stop-color="#7f7fd5"/>
      <stop offset="0.5" stop-color="#86a8e7"/>
      <stop offset="1" stop-color="#91eae4"/>
    </linearGradient>
  </defs>
  <title>logo-full-hor</title>
  <g id="Layer_2" data-name="Layer 2">
    <g id="Layer_1-2" data-name="Layer 1">
      <path d="M10.125,0A10.125,10.125,0,0,0,0,10.125v95.35A10.125,10.125,0,0,0,10.125,115.6H98.25a10.125,10.125,0,0,0,10.125-10.125V10.125A10.125,10.125,0,0,0,98.25,0ZM43.35,17.35V47.675a2.9,2.9,0,0,0,2.9,2.9H62.125a2.9,2.9,0,0,0,2.9-2.9V17.35a2.9,2.9,0,0,0-2.9-2.9H46.25A2.9,2.9,0,0,0,43.35,17.35ZM91.025,79.475H75.15a2.9,2.9,0,0,1-2.9-2.9V17.35a2.9,2.9,0,0,1,2.9-2.9H91.025a2.9,2.9,0,0,1,2.9,2.9V76.575A2.9,2.9,0,0,1,91.025,79.475ZM14.45,17.35v80.9a2.9,2.9,0,0,0,2.9,2.9H33.225a2.9,2.9,0,0,0,2.9-2.9V17.35a2.9,2.9,0,0,0-2.9-2.9H17.35A2.9,2.9,0,0,0,14.45,17.35Z" style="fill-rule: evenodd;fill: url(#linear-gradient)"/>
      <g>
        <path d="M173.11963,75.08369q0,1.24-.76465,1.23926h-6.06445q-.76539,0-3.98145-5.61621a75.45641,75.45641,0,0,1-3.6123-6.85547q-.89649-2.03028-1.02832-2.26758a2.45233,2.45233,0,0,0-1.84571-1.39746q-.3164-.02564-1.7666-.02637-3.32226,0-3.32226.81739,0,2.42651.17138,7.251.17139,4.8252.17139,7.22461,0,.87012-.65918.87012-.501,0-1.50293-.0791-1.00269-.07911-1.50293-.0791-.47461,0-1.41064.0791t-1.41065.0791q-.65918,0-.65918-.60645,0-2.90038.27686-8.71435t.27685-8.71436q0-3.05859-.27685-9.189t-.27686-9.189q0-.57935.65918-.58007.47462,0,1.4502.0791.97485.0791,1.47656.0791.47461,0,1.42383-.0791t1.42383-.0791q.60644,0,.60644.4746,0,2.24123-.145,6.75t-.145,6.77637a3.72093,3.72093,0,0,0,.13184,1.292q.21093.47461,1.081.47461,5.11524,0,7.48828-1.89843,2.03028-1.68678,3.84961-6.19629,1.31837-3.5332,2.63672-7.06641a1.0897,1.0897,0,0,1,.81739-.60644,19.31152,19.31152,0,0,1,2.79492-.10547q2.90038,0,2.90039.81738a32.157,32.157,0,0,1-1.21289,4.27148,30.82389,30.82389,0,0,1-3.69141,7.80469,25.76253,25.76253,0,0,1-3.98144,4.61426,1.48285,1.48285,0,0,0-.63282,1.002,28.40985,28.40985,0,0,0,2.13575,4.71973,53.89378,53.89378,0,0,0,3.34863,5.87988q1.66113,2.031,4.64062,6.249A1.01793,1.01793,0,0,1,173.11963,75.08369Z" style="fill: #7f7fd5"/>
        <path d="M201.70166,52.46064a3.07458,3.07458,0,0,1-.0791.47461,63.33751,63.33751,0,0,0-1.02832,10.415q0,.26367.65918,11.83887l.02637.36914q.02636.76538-.69922.76465a20.53476,20.53476,0,0,0-2.188.17139,20.654,20.654,0,0,1-2.17529.17138q-.501,0-.76465-1.8457-.26367-1.845-.501-1.8457a6.84109,6.84109,0,0,0-1.42383,1.02832,15.54454,15.54454,0,0,1-2.90039,1.9248,9.15894,9.15894,0,0,1-4.166,1.05469,10.931,10.931,0,0,1-8.62207-4.08692,13.60146,13.60146,0,0,1-3.32227-9.09667,14.15181,14.15181,0,0,1,3.34863-9.67676,11.70452,11.70452,0,0,1,9.22852-3.98145,10.0098,10.0098,0,0,1,7.04,2.79492q.44825.52807,1.39746,1.5293a.22787.22787,0,0,0,.1582.0791q.1582,0,.44824-1.66113t.73828-1.66113a16.37848,16.37848,0,0,1,2.66309.3955Q201.70167,52.09151,201.70166,52.46064ZM194.978,63.48213a8.43537,8.43537,0,0,0-1.92481-5.56348,6.39334,6.39334,0,0,0-5.19433-2.50488,6.64425,6.64425,0,0,0-5.27344,2.47852,8.32322,8.32322,0,0,0-2.03027,5.58984,8.18874,8.18874,0,0,0,2.03027,5.53711,6.67126,6.67126,0,0,0,5.27344,2.45215,6.46156,6.46156,0,0,0,5.168-2.50489A8.31632,8.31632,0,0,0,194.978,63.48213Z" style="fill: #7f7fd5"/>
        <path d="M229.229,75.79561q0,.58007-.52734.58007-.87012,0-2.59668-.02636-1.72851-.02637-2.59766-.02637-.4746,0-.47461-.76465,0-1.29126.07911-3.92871.07909-2.636.0791-3.95508,0-1.05394-.02637-3.15088-.02637-2.09619-.02637-3.15088a7.68931,7.68931,0,0,0-.87011-4.24511q-1.05469-1.47657-3.90235-1.47657a7.76745,7.76745,0,0,0-3.665,1.47657q-2.47851,1.55639-2.47851,2.76855V75.7165q0,.65919-.501.65918-.84375,0-2.53125-.02636t-2.53125-.02637q-.55371,0-.55371-.60645,0-2.08227.06641-6.249.06445-4.166.06543-6.27539a42.675,42.675,0,0,0-1.18653-10.3623,1.25487,1.25487,0,0,1-.0791-.34278c0-.17529.11426-.29883.34277-.36914q.18457-.02564,3.01954-.48779,2.833-.4607,2.96582-.46143c.10547,0,.17578.14112.21093.42188a16.92811,16.92811,0,0,0,.60645,3.2959q1.37109-1.08106,3.6123-2.68946a10.29746,10.29746,0,0,1,5.35254-1.6875q4.957,0,6.77637,2.874,1.34472,2.1101,1.34473,6.8291,0,.81738-.03907,2.50488-.041,1.6875-.04,2.53125,0,1.7666.05273,5.27344T229.229,75.79561Z" style="fill: #7f7fd5"/>
        <path d="M260.395,63.5876a13.73691,13.73691,0,0,1-3.24316,9.09668,10.78193,10.78193,0,0,1-8.59571,4.11328,10.6308,10.6308,0,0,1-6.03808-1.74024q-1.05469-.89574-2.10938-1.7666-.29.07911-.38281,1.582-.09228,1.50294-.43457,1.50293h-5.56348q-.31641,0-.3164-.34277,0,.02637.05273-.47461.42188-4.218.42188-16.13672,0-4.87792-.42188-14.31738-.26367-6.01172-.26367-5.27344a.69056.69056,0,0,1,.68555-.76465q.94922-.02564,2.82128-.10547.36915-.02563,1.50293-.18457a9.76283,9.76283,0,0,1,1.5293-.1582q.42188,0,.42188.60645,0,.89648-.13184,2.74218t-.13184,2.76856q0,1.37109-.11914,4.12646-.11718,2.75538-.11816,4.12647,0,1.00269.36914,1.00195c.12305,0,.25488-.09619.39551-.29a9.35259,9.35259,0,0,1,7.67285-3.6123,10.90476,10.90476,0,0,1,8.833,4.08691A14.34093,14.34093,0,0,1,260.395,63.5876Zm-5.959-.23731a8.4533,8.4533,0,0,0-1.97754-5.53711,6.48922,6.48922,0,0,0-5.19434-2.55761,6.6154,6.6154,0,0,0-5.27344,2.50488,8.78289,8.78289,0,0,0,0,11.23242,6.6964,6.6964,0,0,0,5.32617,2.47852,6.43953,6.43953,0,0,0,5.19434-2.55762A8.56567,8.56567,0,0,0,254.436,63.35029Z" style="fill: #86a8e7"/>
        <path d="M288.0542,63.48213a13.36239,13.36239,0,0,1-3.61231,9.41308,12.44983,12.44983,0,0,1-18.32519.02637,14.002,14.002,0,0,1,0-18.77344,12.56032,12.56032,0,0,1,18.29883,0A13.09445,13.09445,0,0,1,288.0542,63.48213Zm-5.56348.05273a8.05854,8.05854,0,0,0-1.97754-5.48437,6.578,6.578,0,0,0-5.2207-2.39942,6.68471,6.68471,0,0,0-5.24707,2.37305,8.5863,8.5863,0,0,0,.02637,10.99512,6.78359,6.78359,0,0,0,10.4414,0A8.18392,8.18392,0,0,0,282.49072,63.53486Z" style="fill: #7f7fd5"/>
        <path d="M317.40088,52.46064a3.07458,3.07458,0,0,1-.0791.47461,63.33751,63.33751,0,0,0-1.02832,10.415q0,.26367.65918,11.83887l.02636.36914q.02637.76538-.69921.76465a20.50947,20.50947,0,0,0-2.1875.17139,20.67984,20.67984,0,0,1-2.17579.17138q-.501,0-.76464-1.8457-.26369-1.845-.501-1.8457a6.84109,6.84109,0,0,0-1.42383,1.02832,15.52894,15.52894,0,0,1-2.90039,1.9248,9.15742,9.15742,0,0,1-4.166,1.05469,10.93239,10.93239,0,0,1-8.62207-4.08692,13.6015,13.6015,0,0,1-3.32226-9.09667,14.15181,14.15181,0,0,1,3.34863-9.67676,11.70519,11.70519,0,0,1,9.22852-3.98145,10.0098,10.0098,0,0,1,7.04,2.79492q.44823.52807,1.39746,1.5293a.22787.22787,0,0,0,.1582.0791q.1582,0,.44824-1.66113t.73828-1.66113a16.37116,16.37116,0,0,1,2.66309.3955Q317.40089,52.09151,317.40088,52.46064Zm-6.72363,11.02149a8.43284,8.43284,0,0,0-1.92481-5.56348,6.39268,6.39268,0,0,0-5.19433-2.50488,6.64425,6.64425,0,0,0-5.27344,2.47852,8.32563,8.32563,0,0,0-2.03028,5.58984,8.1911,8.1911,0,0,0,2.03028,5.53711,6.67126,6.67126,0,0,0,5.27344,2.45215,6.46152,6.46152,0,0,0,5.168-2.50489A8.31628,8.31628,0,0,0,310.67725,63.48213Z" style="fill: #7f7fd5"/>
        <path d="M336.78076,51.56416a32.20864,32.20864,0,0,1-.39551,5.27344q-.07909.60717-.52734.60644-.55371,0-1.6748-.11865-1.12061-.11865-1.7002-.11865-3.32226,0-4.24512,1.87207a12.79087,12.79087,0,0,0-.55371,4.71973v2.90039q0,1.47729.11817,4.48242.1201,3.00585.11914,4.48242,0,.71192-.60645.71191-.81738,0-2.47851-.02636t-2.47852-.02637q-.60645,0-.60645-.65918,0-2.13574.06641-6.43359.06445-4.29713.06543-6.46a36.7488,36.7488,0,0,0-1.21289-10.46777,1.442,1.442,0,0,1-.05273-.3164.46165.46165,0,0,1,.34277-.44825q.97559-.10473,2.74219-.3164,2.84765-.52735,2.63672-.52735.42188,0,.55371,1.55567.13183,1.55638.47461,1.55566a.252.252,0,0,0,.13183-.05273q1.08105-.68554,2.16211-1.3711a9.77121,9.77121,0,0,1,2.42578-1.05468,9.15476,9.15476,0,0,1,2.63672-.31641Q336.78076,51.01045,336.78076,51.56416Z" style="fill: #7f7fd5"/>
        <path d="M365.02,39.54072q0,3.40137-.30371,10.19092-.30322,6.78956-.30274,10.16455,0,10.41578.44825,15.76758l.02636.34277q.02637.26367-.71191.34278a9.41536,9.41536,0,0,1-1.42383,0q-1.10742-.07911-1.02832-.07911-.39551,0-1.16016.07911t-1.16015.0791q-.36915,0-.43555-1.83252A5.30983,5.30983,0,0,0,358.771,72.737a1.537,1.537,0,0,0-.39551.34278,11.12709,11.12709,0,0,1-17.05957-.15821,13.78926,13.78926,0,0,1-3.24317-9.22851,14.01974,14.01974,0,0,1,3.26954-9.43946,11.20217,11.20217,0,0,1,8.93847-4.00781,9.10388,9.10388,0,0,1,5.80078,1.95117q1.13379.97559,2.24121,1.97754a.3475.3475,0,0,0,.21094-.36914v-8.543q0-.87012-.0791-2.63672-.07909-1.76586-.0791-2.66308,0-.63282.42187-.63281.97558,0,2.90039-.17139t2.874-.17139Q365.02,38.987,365.02,39.54072Zm-6.5918,23.99414a8.5601,8.5601,0,0,0-1.95117-5.56347,6.41594,6.41594,0,0,0-5.168-2.55762,6.66765,6.66765,0,0,0-5.35254,2.53125,8.53735,8.53735,0,0,0-2.0039,5.69531,8.03555,8.03555,0,0,0,2.083,5.51074,6.69249,6.69249,0,0,0,5.27344,2.47852,6.46487,6.46487,0,0,0,5.22071-2.50488A8.61144,8.61144,0,0,0,358.42822,63.53486Z" style="fill: #7f7fd5"/>
      </g>
    </g>
  </g>
</svg>
